<svg xmlns="http://www.w3.org/2000/svg" width="320" height="200" data-background-color="#ffffff" data-palette-color="#1ebbd7" viewBox="1.45 -35.65 95.55 46.5">
  <path fill="#1ebbd7" d="M28 0H12.3c-2 0-3.823-.433-5.47-1.3-1.653-.867-2.963-2.06-3.93-3.58-.967-1.513-1.45-3.27-1.45-5.27 0-1.567.36-3.043 1.08-4.43a9.906 9.906 0 0 1 2.97-3.47 9.96 9.96 0 0 1-2.65-3.18c-.667-1.247-1-2.537-1-3.87 0-1.967.477-3.693 1.43-5.18.947-1.48 2.23-2.637 3.85-3.47 1.613-.833 3.387-1.25 5.32-1.25H28v8.5l-13.15-.05c-.533 0-1.017.09-1.45.27a2.37 2.37 0 0 0-1.02.8c-.253.353-.38.797-.38 1.33 0 .5.127.923.38 1.27.247.353.587.62 1.02.8.433.187.917.28 1.45.28h11.4v8.4H14.9c-.567 0-1.067.1-1.5.3-.433.2-.773.483-1.02.85-.253.367-.38.817-.38 1.35 0 .5.127.933.38 1.3.247.367.587.64 1.02.82.433.187.933.28 1.5.28H28zm14.65 0h-10.8v-24.3c0-2.033.5-3.86 1.5-5.48 1-1.613 2.377-2.887 4.13-3.82 1.747-.933 3.737-1.4 5.97-1.4H57.3v8.45H45.1c-.7 0-1.283.233-1.75.7-.467.467-.7 1.05-.7 1.75v3.85H55.7V-12H42.65zM86.2 10.85c-2.267 0-4.223-.407-5.87-1.22-1.653-.82-2.92-1.93-3.8-3.33-.887-1.4-1.33-3-1.33-4.8V.78c0-.253.017-.53.05-.83-2.233-.167-4.3-.717-6.2-1.65a16.313 16.313 0 0 1-4.97-3.75c-1.42-1.567-2.523-3.4-3.31-5.5-.78-2.1-1.17-4.367-1.17-6.8 0-2.467.44-4.783 1.32-6.95a17.02 17.02 0 0 1 3.8-5.7c1.653-1.633 3.623-2.917 5.91-3.85 2.28-.933 4.82-1.4 7.62-1.4s5.343.433 7.63 1.3c2.28.867 4.253 2.1 5.92 3.7 1.667 1.6 2.95 3.5 3.85 5.7.9 2.2 1.35 4.633 1.35 7.3V.3c0 1.833-.4 3.56-1.2 5.18-.8 1.613-2 2.913-3.6 3.9-1.6.98-3.6 1.47-6 1.47zm-.4-8.65c.5 0 .927-.207 1.28-.62.347-.42.52-.98.52-1.68v-6.95a9.252 9.252 0 0 0-1.68 1.72c-.447.62-.803 1.23-1.07 1.83-.267.6-.457 1.19-.57 1.77-.12.587-.18 1.13-.18 1.63s.083.917.25 1.25c.167.333.373.593.62.78.253.18.53.27.83.27zM77.35-8.75c.133 0 .257-.01.37-.03.12-.013.23-.037.33-.07a28.33 28.33 0 0 1 2.3-2.8c.867-.933 1.8-1.81 2.8-2.63 1-.813 2.017-1.537 3.05-2.17v-1.9c0-1.233-.19-2.377-.57-3.43A8.202 8.202 0 0 0 84-24.5a7.487 7.487 0 0 0-2.5-1.8c-.967-.433-2.017-.65-3.15-.65s-2.177.223-3.13.67a7.338 7.338 0 0 0-2.47 1.93c-.7.833-1.25 1.807-1.65 2.92-.4 1.12-.6 2.33-.6 3.63 0 1.267.157 2.423.47 3.47.32 1.053.78 1.97 1.38 2.75a6.854 6.854 0 0 0 2.18 1.88 8.65 8.65 0 0 0 2.82.95z" class="undefined-text-0" data-fill-palette-color="primary"/>
</svg>